 <svg version="1.0" xmlns="http://www.w3.org/2000/svg"  width="1500.000000pt" height="1500.000000pt" viewBox="0 0 1500.000000 1500.000000"  preserveAspectRatio="xMidYMid meet">  <g transform="translate(0.000000,1500.000000) scale(0.100000,-0.100000)" fill="#E31E24" stroke="none"> <path d="M5723 13928 c-6 -7 -12 -20 -16 -29 -3 -9 -6 -398 -8 -865 -2 -508 -6 -858 -12 -871 -5 -12 -21 -26 -36 -32 -17 -7 -309 -12 -889 -13 l-864 -3 -19 -24 c-18 -22 -19 -53 -19 -975 0 -581 4 -957 10 -966 8 -12 44 -16 202 -18 106 -2 197 -7 201 -11 4 -4 8 -85 8 -178 -1 -169 -1 -172 -31 -231 -27 -54 -127 -162 -151 -162 -17 0 -109 -143 -109 -170 0 -15 -7 -49 -15 -76 -12 -40 -15 -127 -15 -481 0 -309 3 -439 12 -458 13 -30 50 -42 81 -27 17 8 18 11 5 11 -9 1 -24 11 -32 23 -14 20 -16 81 -16 466 0 428 1 445 21 490 50 112 62 131 139 201 98 89 126 130 163 241 l28 85 -2 285 c-1 268 0 288 20 338 12 29 21 65 21 81 0 16 8 39 19 52 10 13 22 35 26 49 12 39 52 111 89 160 34 45 47 102 26 115 -13 8 -80 110 -80 121 0 5 -18 36 -40 69 -22 33 -40 68 -40 77 0 9 -10 33 -22 54 -19 32 -22 53 -24 188 -2 151 -1 158 39 261 18 44 60 102 119 164 52 53 146 121 168 121 6 0 25 7 43 17 85 44 364 44 427 0 13 -9 34 -17 47 -17 12 0 25 -5 28 -10 4 -6 30 -25 59 -44 29 -19 65 -51 80 -73 86 -124 90 -137 54 -177 -45 -50 -85 -39 -165 45 -37 39 -92 85 -120 101 -29 16 -56 34 -59 39 -9 16 -255 11 -284 -6 -14 -8 -36 -19 -49 -25 -31 -14 -163 -148 -177 -180 -53 -117 -67 -170 -60 -226 4 -32 15 -72 26 -89 11 -18 20 -43 20 -57 0 -13 5 -29 11 -35 11 -11 36 -55 68 -118 32 -64 67 -95 106 -95 19 0 37 5 40 10 21 34 262 160 307 160 18 0 76 9 128 21 123 26 215 27 261 4 23 -13 69 -21 144 -25 61 -4 137 -14 170 -23 52 -14 133 -16 610 -14 491 3 555 5 594 20 24 9 63 17 86 17 27 0 51 7 68 20 14 11 31 20 38 20 20 0 140 61 194 99 90 63 164 129 219 193 64 75 85 108 161 253 32 61 63 117 70 125 7 8 17 30 23 47 6 18 26 54 44 80 18 27 48 77 66 113 18 36 46 88 62 115 16 28 32 57 35 65 8 19 24 50 93 180 31 58 76 144 100 192 34 69 49 89 69 94 20 5 31 2 44 -15 16 -19 18 -42 18 -167 -1 -99 3 -149 11 -159 14 -17 101 -45 140 -45 15 0 38 -8 51 -19 13 -10 38 -25 54 -34 35 -18 83 -63 144 -134 51 -59 76 -73 131 -73 22 0 63 -9 92 -20 30 -11 77 -20 109 -20 114 0 149 -23 149 -100 0 -42 30 -98 79 -145 58 -57 56 -84 -12 -149 -29 -28 -65 -61 -80 -73 -38 -32 -140 -73 -180 -73 -18 0 -57 -7 -87 -16 -30 -8 -99 -19 -152 -23 -54 -5 -104 -13 -111 -20 -8 -6 -36 -15 -63 -20 -27 -6 -79 -24 -116 -40 -55 -25 -78 -44 -122 -97 -60 -73 -86 -119 -86 -156 0 -12 -7 -32 -15 -42 -9 -12 -15 -42 -15 -74 0 -50 -35 -156 -61 -186 -16 -18 -56 12 -79 58 -25 53 -72 96 -104 96 -56 0 -75 -70 -101 -355 -8 -93 -21 -197 -29 -230 -9 -33 -15 -79 -16 -103 0 -23 -6 -58 -14 -77 -12 -27 -23 -36 -58 -45 -24 -7 -54 -18 -68 -26 -29 -16 -127 -50 -184 -65 -21 -5 -48 -16 -60 -24 -11 -8 -33 -15 -49 -15 -16 0 -42 -9 -58 -21 -16 -11 -46 -23 -66 -26 -21 -3 -49 -14 -62 -25 -13 -10 -31 -18 -40 -18 -9 0 -29 -9 -46 -20 -34 -22 -90 -26 -102 -7 -4 6 -8 57 -8 112 0 94 -1 100 -21 103 -29 4 -34 -18 -34 -150 0 -116 -6 -142 -42 -175 -13 -11 -61 -58 -107 -102 -46 -45 -95 -84 -108 -87 -45 -12 -170 14 -235 47 -20 10 -47 19 -59 19 -18 0 -74 25 -139 62 -8 4 -26 13 -40 20 -14 6 -65 31 -114 55 -50 24 -95 43 -102 43 -7 0 -25 7 -41 15 -68 35 -124 56 -160 62 -21 3 -54 14 -73 23 -19 9 -63 20 -98 23 -34 4 -80 16 -102 27 -34 17 -59 20 -178 20 -94 0 -142 -4 -150 -12 -7 -7 -12 -41 -12 -83 0 -42 -6 -81 -15 -98 -8 -16 -20 -47 -26 -69 -29 -111 -143 -254 -264 -333 -47 -30 -90 -55 -96 -55 -6 0 -22 -9 -36 -20 -14 -11 -32 -20 -40 -20 -8 0 -29 -11 -47 -25 -18 -14 -42 -25 -53 -25 -11 0 -26 -6 -32 -14 -7 -8 -25 -18 -41 -21 -16 -3 -34 -13 -40 -20 -6 -8 -28 -19 -48 -26 -20 -6 -44 -17 -52 -24 -8 -7 -26 -16 -38 -20 -45 -13 -52 -54 -52 -313 0 -141 4 -251 10 -269 8 -22 28 -40 72 -64 63 -36 133 -100 141 -130 7 -25 -48 -107 -79 -119 -14 -6 -114 -11 -222 -11 l-197 -2 160 -9 c88 -4 267 -7 398 -6 l238 3 41 43 c39 42 40 46 36 98 -6 71 -40 108 -167 179 l-36 20 -3 201 c-2 153 1 204 10 211 17 13 77 44 153 78 246 112 378 198 486 317 85 94 155 186 169 223 6 17 17 25 34 25 52 0 51 19 51 -700 0 -550 2 -670 14 -683 12 -16 96 -17 1041 -17 l1028 0 48 36 c52 40 74 38 84 -7 6 -24 6 -24 165 -27 88 -1 170 0 182 3 33 8 66 67 54 97 -11 29 -59 71 -111 98 -21 11 -40 29 -44 42 -3 13 -6 150 -6 306 l0 283 25 47 c14 26 41 72 60 102 19 30 34 60 35 65 0 6 9 27 20 48 11 21 32 98 45 172 21 114 25 165 25 329 0 107 4 197 9 200 4 3 250 7 546 8 392 2 542 6 554 15 14 10 17 96 23 839 5 629 10 835 20 858 7 17 29 55 50 85 21 30 38 63 38 73 0 10 -13 42 -30 71 -23 40 -41 59 -83 81 l-54 30 -51 -22 c-60 -26 -111 -28 -153 -6 -17 8 -83 21 -147 29 -151 19 -224 42 -253 80 -40 54 -93 107 -131 131 -79 51 -145 81 -187 87 -24 3 -50 11 -57 19 -9 9 -14 52 -17 128 -7 182 -35 250 -104 250 -55 0 -88 -41 -188 -235 -175 -338 -208 -401 -220 -415 -8 -8 -17 -28 -21 -43 -11 -47 -57 -69 -136 -65 -43 2 -73 9 -82 18 -13 13 -15 142 -18 895 -2 484 -7 886 -11 893 -7 9 -211 12 -966 12 -755 0 -961 -3 -968 -12z m2383 -2986 c6 -4 24 -25 38 -47 15 -22 41 -55 57 -72 l29 -33 116 0 c125 0 178 -14 189 -51 4 -10 35 -44 70 -76 76 -66 85 -85 57 -122 -10 -14 -22 -36 -26 -48 -10 -30 -71 -82 -124 -106 -36 -15 -57 -18 -102 -13 -31 4 -69 2 -83 -3 l-25 -10 -4 -383 c-3 -372 -4 -384 -26 -432 -12 -27 -22 -57 -22 -68 0 -10 -9 -36 -20 -58 -11 -22 -20 -44 -20 -50 0 -6 -19 -37 -42 -68 -81 -108 -79 -96 -77 -451 l2 -316 29 -27 c16 -14 49 -36 73 -48 34 -17 45 -27 45 -45 0 -29 -24 -55 -53 -56 -182 -5 -188 -4 -203 15 -11 16 -14 77 -14 327 0 169 -3 314 -6 323 -10 26 -71 20 -106 -9 -16 -14 -37 -25 -46 -25 -37 0 -46 18 -53 97 -8 100 -49 183 -128 266 -61 64 -95 84 -216 128 -87 32 -115 35 -133 17 -21 -21 5 -48 45 -48 20 0 55 -9 77 -19 23 -10 52 -21 66 -25 38 -8 154 -119 188 -179 62 -111 64 -294 4 -396 -40 -69 -148 -172 -229 -219 l-71 -42 -294 0 c-161 0 -299 -4 -306 -9 -8 -4 -12 -19 -10 -32 l3 -24 418 -5 c357 -4 419 -7 427 -20 22 -35 2 -104 -34 -117 -12 -4 -248 -6 -526 -4 -390 3 -515 7 -550 17 -25 8 -56 14 -70 14 -14 0 -47 12 -75 25 -27 14 -55 25 -62 25 -7 0 -17 9 -23 20 -6 11 -17 20 -25 20 -15 0 -98 96 -130 151 -55 96 -85 250 -67 348 12 67 40 150 57 171 7 8 19 29 28 45 8 17 46 63 84 102 50 52 78 91 97 137 l28 65 -25 53 c-48 103 -83 125 -209 133 -54 3 -105 8 -113 12 -33 12 -48 100 -21 122 21 18 239 9 291 -11 42 -16 131 -100 167 -157 19 -29 21 -48 21 -162 l0 -129 -38 -57 c-21 -32 -68 -89 -105 -128 -37 -38 -71 -81 -75 -95 -4 -14 -14 -34 -21 -45 -10 -14 -14 -54 -14 -136 0 -105 3 -123 25 -167 27 -53 148 -175 187 -187 13 -4 34 -16 47 -26 28 -22 118 -26 144 -6 14 10 16 48 21 292 5 292 20 447 49 502 9 18 17 39 17 48 0 9 9 33 20 53 11 20 27 53 35 72 35 83 183 260 286 343 109 88 336 199 459 226 19 4 53 18 75 29 22 12 49 22 60 22 12 0 30 7 41 15 10 8 30 15 44 15 14 0 46 11 72 25 26 14 54 25 63 25 9 0 35 10 58 22 23 12 49 24 57 28 11 5 17 34 22 113 4 59 15 134 23 168 9 34 20 130 25 213 10 194 34 253 86 218z m-207 -2021 c13 -23 12 -339 -1 -363 -13 -26 -21 -23 -90 28 -35 25 -80 55 -100 65 -33 17 -38 24 -38 54 0 18 10 50 23 70 12 19 31 50 42 67 27 43 101 98 130 98 14 0 29 -8 34 -19z"/> <path d="M3352 7259 c-18 -3 -36 -9 -39 -13 -3 -3 -8 -37 -9 -76 -2 -39 -12 -91 -23 -118 -13 -31 -21 -80 -24 -147 -3 -63 -11 -115 -22 -140 -10 -24 -20 -85 -25 -155 -5 -72 -14 -126 -24 -145 -11 -21 -16 -58 -16 -127 0 -74 -5 -110 -20 -148 -14 -35 -20 -74 -20 -128 0 -44 -8 -107 -19 -147 -10 -39 -22 -114 -25 -168 -4 -55 -13 -113 -20 -131 -7 -17 -16 -79 -21 -136 -4 -57 -15 -127 -25 -155 -11 -30 -20 -92 -23 -155 -3 -61 -12 -121 -21 -142 -10 -24 -16 -69 -16 -125 0 -68 -6 -104 -25 -158 -19 -53 -25 -90 -25 -152 0 -45 3 -84 8 -86 4 -2 50 -7 103 -11 109 -8 129 1 129 55 0 16 9 55 19 86 12 35 22 102 25 168 6 114 28 191 56 200 9 3 125 6 259 7 208 3 245 1 252 -12 23 -46 49 -156 55 -235 6 -93 38 -230 59 -253 7 -8 47 -15 101 -19 76 -5 92 -3 107 11 25 25 23 130 -3 189 -13 29 -22 79 -26 139 -4 52 -15 114 -25 141 -13 32 -19 74 -19 130 -1 60 -6 93 -20 122 -14 29 -19 62 -20 117 0 54 -6 94 -21 130 -12 33 -22 89 -26 148 -3 55 -14 115 -24 143 -13 32 -19 73 -19 125 0 54 -6 93 -21 131 -11 31 -23 91 -26 140 -3 47 -12 101 -19 120 -8 20 -14 70 -14 123 0 67 -5 98 -19 126 -12 24 -21 71 -26 132 -3 52 -15 119 -26 148 -13 36 -19 79 -19 133 0 62 -5 92 -25 139 -15 36 -25 79 -25 108 0 75 -12 81 -155 80 -66 -1 -135 -5 -153 -9z m152 -531 c7 -18 22 -51 31 -73 12 -27 20 -80 25 -160 4 -76 13 -134 23 -157 12 -26 17 -66 17 -133 0 -73 5 -107 21 -147 14 -36 22 -85 26 -153 2 -55 11 -118 20 -140 9 -24 17 -80 19 -141 2 -66 9 -121 22 -160 11 -32 23 -86 27 -120 10 -95 14 -94 -234 -94 -158 0 -211 3 -219 13 -16 19 1 272 22 321 11 26 16 69 16 136 0 60 6 115 16 146 8 27 19 106 24 175 5 77 15 141 25 165 11 25 19 87 25 174 4 80 14 153 24 179 9 24 16 67 16 97 0 53 16 104 32 104 4 0 14 -15 22 -32z"/> <path d="M4420 7261 l-35 -6 -8 -85 c-12 -132 -14 -130 142 -130 104 0 133 -3 145 -16 14 -14 16 -142 16 -1258 0 -1144 1 -1245 17 -1257 11 -10 47 -14 125 -14 97 0 111 2 124 19 12 17 14 203 14 1254 0 831 3 1240 10 1253 10 17 22 19 123 19 75 0 117 4 125 12 24 24 9 191 -19 209 -14 9 -728 9 -779 0z"/> <path d="M5962 7263 c-40 -8 -69 -88 -80 -224 -6 -69 -16 -128 -26 -147 -11 -22 -16 -58 -16 -125 0 -63 -5 -109 -16 -138 -9 -24 -20 -92 -24 -150 -4 -58 -15 -119 -23 -135 -8 -17 -17 -76 -21 -143 -4 -63 -14 -130 -22 -149 -8 -19 -18 -87 -23 -151 -5 -69 -16 -132 -26 -156 -12 -26 -19 -78 -23 -150 -2 -60 -9 -119 -15 -130 -6 -11 -14 -69 -18 -130 -5 -80 -12 -122 -28 -155 -16 -35 -21 -65 -21 -135 -1 -51 -7 -107 -15 -130 -8 -22 -17 -85 -21 -140 -4 -64 -15 -123 -30 -164 -38 -107 -7 -130 158 -119 97 7 101 13 104 145 2 78 8 125 23 170 13 38 21 88 21 127 0 49 4 65 16 70 9 3 131 6 273 6 190 0 262 -3 274 -12 14 -10 19 -35 23 -113 3 -55 12 -120 20 -144 8 -25 14 -81 14 -126 0 -115 2 -117 133 -122 154 -5 162 2 123 102 -9 23 -15 73 -16 117 0 51 -6 94 -19 125 -10 26 -21 87 -25 135 -3 49 -15 110 -26 138 -14 35 -20 74 -20 126 0 46 -6 89 -16 112 -8 20 -18 80 -21 132 -3 54 -12 110 -20 130 -9 19 -19 80 -23 135 -4 55 -15 117 -24 137 -10 24 -16 65 -16 117 0 58 -6 95 -21 133 -12 31 -23 86 -26 133 -3 44 -14 109 -24 144 -10 35 -19 92 -19 127 0 39 -8 87 -20 121 -13 38 -20 83 -20 133 0 55 -7 96 -24 146 -16 46 -26 98 -28 156 -3 64 -9 92 -21 106 -9 10 -17 24 -17 30 0 29 -45 40 -155 40 -60 -1 -121 -3 -133 -5z m167 -527 c7 -8 13 -52 15 -98 2 -46 11 -105 20 -133 11 -31 19 -92 22 -158 2 -67 10 -121 20 -145 9 -22 19 -87 24 -157 4 -67 14 -138 23 -160 10 -25 16 -72 17 -127 0 -64 6 -101 21 -140 12 -32 22 -85 25 -137 3 -48 10 -113 16 -145 17 -87 19 -86 -239 -86 -206 0 -213 1 -224 21 -12 24 -5 88 17 151 8 22 17 93 20 157 3 67 13 141 24 176 11 37 20 104 23 176 3 86 9 123 21 140 12 18 16 48 16 135 0 85 5 124 20 169 13 37 20 84 20 131 0 89 16 168 42 212 21 35 39 40 57 18z"/> <path d="M7068 7258 c-10 -9 -18 -38 -22 -87 -6 -64 -4 -77 15 -108 17 -27 23 -59 29 -141 4 -59 15 -123 23 -142 8 -19 17 -76 20 -126 4 -50 14 -108 23 -130 9 -21 20 -81 24 -134 4 -52 15 -113 23 -135 10 -23 16 -71 17 -115 0 -49 7 -96 20 -133 13 -35 20 -82 20 -125 0 -39 7 -89 16 -113 9 -24 20 -90 24 -145 5 -62 15 -114 25 -135 11 -20 19 -65 22 -118 3 -48 13 -110 24 -139 12 -34 19 -80 19 -130 1 -45 7 -94 16 -117 9 -22 19 -89 24 -150 4 -67 13 -121 23 -139 9 -16 19 -62 22 -103 4 -41 14 -80 21 -88 10 -10 43 -12 146 -9 73 3 143 7 154 9 37 8 54 62 54 169 0 58 6 110 14 133 8 21 17 83 19 138 3 59 12 118 22 145 10 26 20 95 25 161 4 64 14 127 21 140 7 13 16 76 20 139 4 66 14 130 23 151 8 21 18 83 22 145 4 64 12 121 21 139 9 17 18 77 23 140 4 61 13 121 20 135 7 13 17 76 21 140 5 73 15 136 28 172 15 41 21 82 21 142 0 47 5 97 11 113 6 15 15 77 20 137 6 60 17 127 26 150 8 22 18 62 20 88 4 38 1 50 -16 67 -20 20 -30 21 -106 17 -47 -3 -90 -8 -95 -11 -6 -4 -22 -32 -36 -62 -20 -46 -24 -72 -24 -149 0 -66 -6 -111 -19 -151 -13 -39 -21 -98 -24 -178 -3 -70 -11 -137 -20 -161 -8 -22 -18 -94 -22 -160 -5 -77 -14 -136 -26 -167 -14 -36 -19 -74 -19 -149 0 -56 -6 -129 -14 -162 -8 -34 -20 -113 -26 -176 -6 -63 -18 -142 -26 -175 -9 -33 -17 -110 -19 -172 -3 -76 -9 -121 -19 -142 -9 -16 -16 -55 -16 -85 0 -63 -16 -106 -39 -106 -27 0 -80 195 -80 293 -1 43 -6 88 -13 100 -6 12 -15 74 -19 137 -5 79 -14 132 -28 168 -15 38 -21 75 -21 133 0 54 -6 98 -20 137 -12 34 -23 96 -26 157 -3 55 -12 118 -20 140 -8 22 -18 85 -23 140 -5 55 -17 117 -25 137 -11 25 -16 68 -16 126 0 62 -6 104 -20 145 -13 35 -20 82 -20 124 0 65 -40 230 -63 261 -6 8 -39 12 -96 12 -55 0 -93 -5 -103 -12z"/> <path d="M8699 7253 c-12 -13 -15 -246 -17 -1352 -2 -735 0 -1350 3 -1368 l6 -32 367 -3 c202 -2 372 -2 379 0 19 6 33 60 33 129 0 109 15 103 -253 103 -168 0 -236 3 -245 12 -17 17 -17 1019 0 1036 9 9 74 12 229 12 173 0 219 3 228 14 8 9 11 48 9 112 l-3 99 -227 5 c-146 3 -231 9 -238 16 -18 18 -14 974 4 992 10 11 66 14 242 15 l229 2 0 95 c0 52 -3 103 -7 112 -7 17 -34 18 -367 18 -320 0 -360 -2 -372 -17z"/> <path d="M9781 7256 c-8 -9 -11 -48 -9 -112 l3 -99 137 -3 138 -3 15 -29 c13 -25 15 -181 15 -1253 0 -1040 2 -1226 14 -1243 12 -16 29 -19 113 -22 72 -3 103 0 117 11 18 13 18 54 20 1256 l1 1243 24 19 c20 16 40 19 135 19 74 0 116 4 124 12 14 14 16 176 2 198 -14 22 -831 28 -849 6z"/> <path d="M11222 3923 c4 -22 82 -63 118 -63 35 1 115 42 115 60 0 8 -7 13 -15 11 -66 -17 -134 -20 -167 -6 -46 19 -55 19 -51 -2z"/> <path d="M4857 3913 c-14 -14 -7 -74 9 -80 46 -17 93 37 64 73 -13 14 -61 19 -73 7z"/> <path d="M9377 3913 c-11 -11 -8 -58 5 -71 7 -7 21 -12 33 -12 12 0 26 5 33 12 17 17 15 65 -4 72 -21 8 -59 8 -67 -1z"/> <path d="M10672 3907 c-9 -10 -9 -22 -1 -46 10 -28 15 -31 50 -31 33 0 41 4 51 26 8 18 9 30 1 42 -13 22 -85 28 -101 9z"/> <path d="M11914 3906 c-18 -47 18 -88 60 -68 35 16 37 67 4 76 -37 10 -58 7 -64 -8z"/> <path d="M2233 3730 l-23 -9 0 -524 c0 -288 3 -545 6 -571 4 -29 13 -50 24 -56 9 -5 68 -6 136 -2 105 6 119 9 122 26 6 28 -15 36 -95 36 -91 0 -112 16 -115 88 -7 209 -2 374 11 385 8 7 53 14 100 17 l86 5 0 30 0 30 -84 5 c-66 5 -86 10 -97 25 -11 14 -14 63 -14 211 0 237 -1 236 111 241 41 2 80 5 87 8 17 6 15 52 -4 59 -24 9 -226 6 -251 -4z"/> <path d="M2793 3733 c-7 -2 -13 -13 -13 -23 0 -24 17 -36 67 -49 23 -6 46 -17 50 -24 4 -6 10 -248 13 -537 l5 -525 33 -3 32 -3 2 293 c0 161 2 397 2 524 1 259 1 257 72 275 47 12 65 39 44 64 -10 12 -42 15 -154 14 -77 0 -147 -3 -153 -6z"/> <path d="M3438 3733 c-17 -4 -18 -28 -18 -326 -2 -779 -1 -821 17 -834 11 -9 55 -13 128 -13 119 0 150 10 143 46 -3 16 -14 20 -89 24 -51 3 -93 11 -103 19 -14 12 -16 42 -16 236 l0 223 40 7 c21 4 49 4 60 0 34 -11 98 4 105 24 12 40 -2 49 -91 53 -71 2 -88 6 -100 22 -11 16 -14 63 -14 217 0 243 -5 233 122 229 62 -2 90 13 86 48 l-3 27 -125 1 c-69 1 -133 0 -142 -3z"/> <path d="M4072 3727 c-16 -19 -18 -1118 -2 -1146 12 -23 40 -27 58 -9 9 9 12 86 12 284 0 271 0 273 22 288 14 10 44 16 76 16 47 0 57 -4 94 -38 l40 -38 -1 -248 c-1 -176 1 -252 10 -262 13 -15 66 -19 87 -5 19 12 8 287 -17 441 -16 93 -23 117 -40 129 -27 17 -27 51 0 85 28 36 59 156 59 231 0 69 -24 179 -46 213 -9 13 -39 34 -67 48 -45 21 -67 24 -163 24 -80 0 -115 -4 -122 -13z m265 -91 l37 -33 -2 -152 c-1 -135 -3 -155 -22 -185 -11 -19 -27 -37 -36 -40 -25 -9 -137 -7 -154 4 -18 11 -30 205 -20 333 7 96 18 107 102 107 52 0 62 -4 95 -34z"/> <path d="M4855 3728 c-3 -7 -4 -272 -3 -588 3 -574 3 -575 24 -578 46 -7 46 -5 52 590 5 537 4 562 -13 575 -24 16 -54 17 -60 1z"/> <path d="M5335 3731 c-10 -18 -15 -1120 -4 -1147 6 -19 15 -25 32 -22 l22 3 5 375 c3 206 9 381 13 388 5 6 14 12 20 12 14 0 59 -94 77 -160 7 -25 16 -50 22 -57 5 -7 16 -36 23 -65 8 -29 19 -73 25 -98 7 -25 23 -68 36 -96 13 -28 24 -64 24 -80 0 -16 6 -39 14 -50 8 -12 18 -45 22 -74 7 -53 31 -90 58 -90 8 0 17 4 21 10 3 5 7 264 8 575 2 494 0 567 -13 575 -25 16 -59 11 -70 -9 -23 -44 -9 -475 21 -646 7 -43 7 -68 -1 -89 l-10 -28 -33 25 c-23 18 -35 38 -43 73 -6 27 -19 63 -28 79 -9 17 -16 40 -16 52 0 12 -9 37 -19 55 -10 18 -22 51 -26 72 -3 21 -12 48 -20 60 -7 12 -16 38 -20 60 -3 21 -14 57 -24 80 -29 65 -52 138 -59 181 -5 31 -12 41 -29 43 -11 2 -24 -2 -28 -7z"/> <path d="M6146 3727 c-16 -12 -17 -50 -17 -576 1 -398 5 -568 12 -578 9 -10 45 -13 140 -13 129 0 129 0 141 25 17 37 -2 50 -65 48 -66 -2 -124 13 -136 35 -11 21 -17 414 -7 431 4 7 39 11 90 11 93 0 120 12 114 51 -3 23 -7 24 -90 29 -51 3 -93 11 -100 18 -9 9 -15 68 -19 200 -4 160 -3 191 11 217 18 34 61 47 130 39 37 -5 48 -2 63 14 15 16 16 24 7 41 -10 20 -19 21 -133 21 -85 0 -129 -4 -141 -13z"/> <path d="M6800 3730 c-13 -8 -15 -84 -17 -571 -1 -354 2 -569 8 -581 10 -18 53 -25 62 -10 3 4 8 131 11 282 6 264 7 276 27 293 14 11 38 17 75 17 46 0 58 -4 88 -33 l36 -32 4 -241 c2 -154 8 -249 15 -263 14 -26 56 -38 76 -21 12 10 15 48 15 218 0 198 -1 208 -26 271 -14 36 -35 75 -45 87 -24 26 -24 45 -1 75 10 13 31 51 46 83 27 56 28 65 24 175 -4 108 -6 120 -34 166 -43 71 -102 94 -244 94 -58 1 -112 -4 -120 -9z m225 -73 c11 -5 30 -19 43 -30 21 -20 22 -27 22 -188 0 -205 -2 -210 -100 -213 -79 -3 -116 8 -124 37 -3 12 -6 93 -6 180 0 122 3 165 15 187 23 45 89 57 150 27z"/> <path d="M8030 3719 c-14 -26 -12 -1115 2 -1142 14 -27 60 -19 69 13 4 14 5 120 1 235 -5 213 3 286 31 284 18 0 77 -78 77 -100 0 -11 9 -37 20 -59 11 -22 20 -47 20 -57 0 -10 11 -36 25 -58 13 -22 25 -50 25 -63 0 -13 6 -35 14 -50 7 -15 17 -45 20 -67 8 -43 50 -95 77 -95 9 0 23 7 30 16 11 13 10 24 -5 63 -9 25 -21 60 -25 76 -4 17 -18 49 -29 72 -12 23 -22 49 -22 58 0 8 -9 32 -20 52 -11 21 -20 44 -20 51 0 7 -11 34 -25 60 -14 26 -25 56 -25 68 0 12 -7 27 -15 34 -19 16 -19 67 0 100 8 14 14 34 15 45 0 11 11 41 25 67 14 26 25 53 25 60 0 7 9 30 20 51 11 20 20 46 20 57 0 11 11 43 25 70 14 27 25 57 25 67 0 10 7 29 16 41 22 32 15 66 -16 70 -37 4 -60 -18 -75 -74 -17 -60 -30 -100 -61 -179 -13 -33 -24 -65 -24 -70 0 -6 -9 -28 -20 -50 -11 -22 -20 -48 -20 -59 0 -26 -59 -116 -76 -116 -29 0 -35 54 -33 293 1 251 0 256 -43 257 -10 0 -22 -9 -28 -21z"/> <path d="M8767 3727 c-17 -11 -18 -52 -15 -575 3 -544 4 -564 22 -578 15 -10 52 -14 137 -14 125 0 147 8 134 50 -6 18 -15 20 -80 20 -63 0 -78 4 -101 23 l-26 23 1 518 c1 381 -1 522 -10 532 -14 17 -40 18 -62 1z"/> <path d="M9382 3728 c-17 -17 -17 -1139 0 -1156 18 -18 46 -15 57 7 15 28 15 1129 0 1147 -14 17 -41 18 -57 2z"/> <path d="M9851 3721 c-16 -28 -8 -1138 8 -1154 8 -8 16 -9 29 -1 15 10 17 45 22 385 3 206 9 380 13 387 15 23 35 12 48 -25 7 -21 18 -47 24 -58 7 -11 16 -38 20 -60 4 -21 15 -56 26 -77 10 -20 19 -48 19 -60 0 -13 9 -38 20 -56 11 -17 23 -51 26 -75 4 -23 15 -58 26 -77 10 -19 18 -46 18 -60 0 -14 9 -44 20 -65 11 -22 23 -58 27 -80 6 -46 28 -75 54 -75 10 0 20 8 22 18 3 9 4 269 3 577 l-1 560 -27 9 c-56 20 -58 10 -58 -273 0 -196 4 -275 16 -338 16 -80 13 -153 -6 -153 -26 0 -61 26 -65 49 -3 14 -12 46 -21 71 -8 25 -21 66 -29 92 -7 25 -20 57 -29 69 -9 13 -16 40 -16 59 0 20 -4 40 -9 45 -11 11 -64 168 -76 225 -4 19 -13 44 -20 55 -7 11 -16 36 -20 55 -11 51 -45 68 -64 31z"/> <path d="M10683 3733 c-18 -7 -19 -1143 -1 -1161 15 -15 61 -15 76 0 17 17 17 1139 0 1156 -12 12 -52 15 -75 5z"/> <path d="M11923 3733 c-10 -4 -13 -129 -13 -578 0 -558 1 -575 19 -585 25 -13 27 -13 45 6 14 14 16 80 16 584 0 509 -2 568 -16 574 -18 7 -33 7 -51 -1z"/> <path d="M1417 3723 c-12 -11 -7 -57 13 -113 12 -35 19 -82 20 -128 0 -48 6 -84 17 -105 10 -20 19 -73 24 -141 5 -59 14 -115 20 -123 7 -8 16 -64 20 -125 5 -64 14 -120 22 -132 18 -26 30 -104 28 -179 -1 -52 2 -62 28 -88 19 -18 40 -29 58 -29 49 0 55 11 58 101 1 61 8 95 22 124 15 30 22 69 26 153 4 66 12 123 21 140 8 15 17 74 21 132 4 58 14 121 22 140 8 19 19 93 24 164 6 87 14 137 26 156 22 38 12 60 -30 60 -19 0 -39 -6 -44 -12 -6 -7 -14 -62 -17 -121 -4 -60 -14 -127 -23 -150 -9 -24 -19 -100 -23 -178 -5 -78 -14 -147 -21 -160 -8 -14 -16 -78 -20 -152 -7 -140 -15 -162 -50 -131 -35 31 -51 82 -56 183 -3 57 -13 118 -24 149 -12 33 -22 95 -25 160 -4 59 -13 123 -21 142 -7 19 -16 77 -20 130 -6 109 -20 140 -62 140 -15 0 -31 -3 -34 -7z"/> <path d="M11264 3712 c-46 -26 -67 -44 -94 -82 -21 -30 -25 -50 -31 -150 -3 -63 -5 -261 -2 -440 l4 -324 35 -53 c37 -56 93 -93 139 -93 30 0 95 31 114 54 8 9 24 16 38 16 18 0 28 -9 39 -36 12 -28 18 -34 27 -25 12 12 11 580 -1 593 -11 11 -152 12 -163 1 -6 -6 -9 -21 -7 -34 2 -19 11 -25 42 -30 21 -3 42 -12 46 -18 9 -16 19 -132 15 -191 -1 -25 -9 -83 -17 -129 -18 -100 -36 -120 -110 -121 -54 0 -84 21 -93 67 -4 16 -13 46 -21 68 -21 61 -21 690 1 742 8 19 15 43 15 53 0 26 56 70 88 70 15 0 45 -9 68 -19 39 -18 41 -21 47 -72 4 -30 7 -88 7 -129 0 -84 9 -100 52 -100 40 0 47 27 38 140 -10 132 -33 186 -94 228 -39 26 -58 32 -100 32 -29 -1 -64 -8 -82 -18z"/> </g> </svg> 