<svg width="200" height="200" viewBox="0 0 200 200" fill="none" xmlns="http://www.w3.org/2000/svg">
  <path d="M140 70C140 56.7 129.3 46 116 46H84C70.7 46 60 56.7 60 70V140C60 153.3 70.7 164 84 164H116C129.3 164 140 153.3 140 140V70Z" fill="#F7F7F7"/>
  <path d="M80 85L60 65" stroke="#121212" stroke-width="6" stroke-linecap="round"/>
  <path d="M120 85L140 65" stroke="#121212" stroke-width="6" stroke-linecap="round"/>
  <path d="M100 130L90 120" stroke="#121212" stroke-width="6" stroke-linecap="round"/>
  <path d="M100 130L110 120" stroke="#121212" stroke-width="6" stroke-linecap="round"/>
  <circle cx="85" cy="95" r="5" fill="#E31E24"/>
  <circle cx="115" cy="95" r="5" fill="#E31E24"/>
  <path d="M70 110C70 110 80 120 100 120C120 120 130 110 130 110" stroke="#121212" stroke-width="6" stroke-linecap="round"/>
  <path d="M80 40L84 70" stroke="#121212" stroke-width="6" stroke-linecap="round"/>
  <path d="M120 40L116 70" stroke="#121212" stroke-width="6" stroke-linecap="round"/>
</svg> 