<svg width="200" height="200" viewBox="0 0 200 200" fill="none" xmlns="http://www.w3.org/2000/svg">
  <path d="M140 60C140 46.7 129.3 36 116 36H84C70.7 36 60 46.7 60 60V140C60 153.3 70.7 164 84 164H116C129.3 164 140 153.3 140 140V60Z" fill="#F7F7F7"/>
  <path d="M105 110C105 110 105 110 105 110C105 110 95 110 95 110C95 110 95 120 95 120C95 120 105 120 105 120" stroke="#121212" stroke-width="6" stroke-linecap="round"/>
  <path d="M70 75C70 75 70 85 70 85" stroke="#121212" stroke-width="6" stroke-linecap="round"/>
  <path d="M130 75C130 75 130 85 130 85" stroke="#121212" stroke-width="6" stroke-linecap="round"/>
  <path d="M70 105C70 105 75 100 85 100C95 100 100 105 100 105C100 105 105 100 115 100C125 100 130 105 130 105" stroke="#121212" stroke-width="6" stroke-linecap="round"/>
  <path d="M60 85C60 85 40 75 40 55C40 45 45 40 50 40C55 40 60 45 60 55" stroke="#121212" stroke-width="6" stroke-linecap="round"/>
  <path d="M140 85C140 85 160 75 160 55C160 45 155 40 150 40C145 40 140 45 140 55" stroke="#121212" stroke-width="6" stroke-linecap="round"/>
  <circle cx="85" cy="75" r="5" fill="#E31E24"/>
  <circle cx="115" cy="75" r="5" fill="#E31E24"/>
</svg> 