<svg width="200" height="200" viewBox="0 0 200 200" fill="none" xmlns="http://www.w3.org/2000/svg">
  <rect width="200" height="200" fill="#F2F2F2"/>
  <path d="M108 92C108 95.866 104.866 99 101 99C97.134 99 94 95.866 94 92C94 88.134 97.134 85 101 85C104.866 85 108 88.134 108 92Z" fill="#E31E24"/>
  <path d="M136 92C136 95.866 132.866 99 129 99C125.134 99 122 95.866 122 92C122 88.134 125.134 85 129 85C132.866 85 136 88.134 136 92Z" fill="#E31E24"/>
  <path d="M80 92C80 95.866 76.866 99 73 99C69.134 99 66 95.866 66 92C66 88.134 69.134 85 73 85C76.866 85 80 88.134 80 92Z" fill="#E31E24"/>
  <path d="M108 120C108 123.866 104.866 127 101 127C97.134 127 94 123.866 94 120C94 116.134 97.134 113 101 113C104.866 113 108 116.134 108 120Z" fill="#E31E24"/>
  <path d="M136 120C136 123.866 132.866 127 129 127C125.134 127 122 123.866 122 120C122 116.134 125.134 113 129 113C132.866 113 136 116.134 136 120Z" fill="#E31E24"/>
  <path d="M80 120C80 123.866 76.866 127 73 127C69.134 127 66 123.866 66 120C66 116.134 69.134 113 73 113C76.866 113 80 116.134 80 120Z" fill="#E31E24"/>
  <path d="M108.5 101C114.299 101 119 110.507 119 122.5C119 134.493 114.299 144 108.5 144C102.701 144 98 134.493 98 122.5C98 110.507 102.701 101 108.5 101Z" fill="#E31E24"/>
  <path d="M93.5 101C99.299 101 104 110.507 104 122.5C104 134.493 99.299 144 93.5 144C87.701 144 83 134.493 83 122.5C83 110.507 87.701 101 93.5 101Z" fill="#E31E24"/>
</svg> 